<svg width="141" height="31" viewBox="0 0 141 31" fill="none" xmlns="http://www.w3.org/2000/svg">
<path d="M13.755 17.765H4.89V14.69H13.755V17.765ZM8.865 5.405H9.795L3.585 23H0.135L7.62 2H11.025L18.525 23H15.06L8.865 5.405ZM24.6328 23.3C23.5328 23.3 22.5728 23.185 21.7528 22.955C20.9328 22.715 20.2078 22.44 19.5778 22.13L19.9078 19.145C20.5078 19.535 21.1928 19.885 21.9628 20.195C22.7328 20.495 23.5828 20.645 24.5128 20.645C25.3328 20.645 25.9578 20.515 26.3878 20.255C26.8178 19.985 27.0328 19.575 27.0328 19.025C27.0328 18.595 26.9078 18.245 26.6578 17.975C26.4078 17.695 26.0678 17.46 25.6378 17.27C25.2178 17.07 24.7428 16.88 24.2128 16.7C23.3828 16.42 22.6328 16.105 21.9628 15.755C21.2928 15.395 20.7578 14.935 20.3578 14.375C19.9678 13.815 19.7728 13.09 19.7728 12.2C19.7728 11.38 19.9828 10.64 20.4028 9.98C20.8228 9.31 21.4428 8.78 22.2628 8.39C23.0828 8 24.1028 7.805 25.3228 7.805C26.2828 7.805 27.1128 7.91 27.8128 8.12C28.5228 8.33 29.1628 8.59 29.7328 8.9L29.4028 11.825C28.8128 11.395 28.1978 11.04 27.5578 10.76C26.9178 10.47 26.1928 10.325 25.3828 10.325C24.6628 10.325 24.0928 10.465 23.6728 10.745C23.2628 11.025 23.0578 11.44 23.0578 11.99C23.0578 12.61 23.3178 13.065 23.8378 13.355C24.3578 13.645 25.1678 13.99 26.2678 14.39C26.8478 14.6 27.3878 14.83 27.8878 15.08C28.3878 15.33 28.8278 15.625 29.2078 15.965C29.5878 16.305 29.8828 16.71 30.0928 17.18C30.3028 17.65 30.4078 18.21 30.4078 18.86C30.4078 19.7 30.2078 20.455 29.8078 21.125C29.4078 21.795 28.7828 22.325 27.9328 22.715C27.0828 23.105 25.9828 23.3 24.6328 23.3ZM32.9705 23V0.499998H36.3155V14.435L41.2505 8.105H45.1205L39.5105 15.185L45.2555 23H41.3705L36.3155 16.04V23H32.9705ZM47.5744 23V2H60.7894V5.3H51.1144V10.385H58.6894V13.685H51.1144V19.7H61.0744V23H47.5744ZM62.4537 23L67.4787 15.56L62.4987 8.105H66.4137L69.5037 12.995L72.3387 8.105H76.3137L71.3787 15.485L76.3737 23H72.4437L69.3537 18.125L66.3837 23H62.4537ZM78.4692 30.26V8.105H81.1392L81.7842 10.91L80.7942 10.475C81.4642 9.675 82.2192 9.04 83.0592 8.57C83.9092 8.09 84.9442 7.85 86.1642 7.85C87.5942 7.85 88.7992 8.2 89.7792 8.9C90.7692 9.6 91.5192 10.535 92.0292 11.705C92.5392 12.875 92.7942 14.165 92.7942 15.575C92.7942 16.985 92.5442 18.275 92.0442 19.445C91.5442 20.615 90.8042 21.55 89.8242 22.25C88.8442 22.95 87.6242 23.3 86.1642 23.3C84.9942 23.3 84.0042 23.11 83.1942 22.73C82.3942 22.35 81.6792 21.76 81.0492 20.96L81.8142 20.285V30.26H78.4692ZM85.6242 20.48C86.8042 20.48 87.7242 20.035 88.3842 19.145C89.0442 18.245 89.3742 17.055 89.3742 15.575C89.3742 14.085 89.0442 12.895 88.3842 12.005C87.7242 11.115 86.8042 10.67 85.6242 10.67C84.7842 10.67 84.0642 10.87 83.4642 11.27C82.8742 11.66 82.4242 12.22 82.1142 12.95C81.8042 13.68 81.6492 14.555 81.6492 15.575C81.6492 16.615 81.8042 17.5 82.1142 18.23C82.4242 18.96 82.8742 19.52 83.4642 19.91C84.0642 20.29 84.7842 20.48 85.6242 20.48ZM102.631 23.3C100.851 23.3 99.3614 22.94 98.1614 22.22C96.9714 21.5 96.0714 20.55 95.4614 19.37C94.8614 18.18 94.5614 16.875 94.5614 15.455C94.5614 14.085 94.8414 12.825 95.4014 11.675C95.9714 10.515 96.7964 9.59 97.8764 8.9C98.9664 8.2 100.286 7.85 101.836 7.85C103.196 7.85 104.356 8.125 105.316 8.675C106.276 9.225 107.006 9.985 107.506 10.955C108.016 11.915 108.271 13.015 108.271 14.255C108.271 14.535 108.251 14.83 108.211 15.14C108.181 15.44 108.136 15.75 108.076 16.07H98.0264C98.1664 17.16 98.4714 18.025 98.9414 18.665C99.4114 19.305 99.9964 19.77 100.696 20.06C101.396 20.34 102.151 20.48 102.961 20.48C103.761 20.48 104.531 20.385 105.271 20.195C106.021 19.995 106.716 19.725 107.356 19.385L107.611 22.16C107.041 22.44 106.336 22.7 105.496 22.94C104.656 23.18 103.701 23.3 102.631 23.3ZM98.1764 13.79H104.851C104.851 13.25 104.746 12.745 104.536 12.275C104.336 11.795 104.011 11.41 103.561 11.12C103.121 10.82 102.541 10.67 101.821 10.67C100.771 10.67 99.9514 10.955 99.3614 11.525C98.7814 12.095 98.3864 12.85 98.1764 13.79ZM110.872 23V8.105H113.902L114.067 10.01C114.587 9.4 115.192 8.88 115.882 8.45C116.572 8.02 117.317 7.805 118.117 7.805C118.357 7.805 118.582 7.83 118.792 7.88L118.522 11.285C118.332 11.235 118.142 11.205 117.952 11.195C117.762 11.175 117.567 11.165 117.367 11.165C116.687 11.165 116.062 11.32 115.492 11.63C114.922 11.94 114.522 12.3 114.292 12.71V23H110.872ZM125.592 23.3C124.652 23.3 123.892 23.115 123.312 22.745C122.732 22.375 122.307 21.905 122.037 21.335C121.767 20.755 121.632 20.15 121.632 19.52V10.82H119.352L119.652 8.105H121.632V4.685L124.977 4.34V8.105H128.487V10.82H124.977V17.945C124.977 18.775 125.027 19.375 125.127 19.745C125.227 20.105 125.457 20.335 125.817 20.435C126.177 20.525 126.757 20.57 127.557 20.57H128.457L128.172 23.3H125.592ZM135.111 23.3C134.011 23.3 133.051 23.185 132.231 22.955C131.411 22.715 130.686 22.44 130.056 22.13L130.386 19.145C130.986 19.535 131.671 19.885 132.441 20.195C133.211 20.495 134.061 20.645 134.991 20.645C135.811 20.645 136.436 20.515 136.866 20.255C137.296 19.985 137.511 19.575 137.511 19.025C137.511 18.595 137.386 18.245 137.136 17.975C136.886 17.695 136.546 17.46 136.116 17.27C135.696 17.07 135.221 16.88 134.691 16.7C133.861 16.42 133.111 16.105 132.441 15.755C131.771 15.395 131.236 14.935 130.836 14.375C130.446 13.815 130.251 13.09 130.251 12.2C130.251 11.38 130.461 10.64 130.881 9.98C131.301 9.31 131.921 8.78 132.741 8.39C133.561 8 134.581 7.805 135.801 7.805C136.761 7.805 137.591 7.91 138.291 8.12C139.001 8.33 139.641 8.59 140.211 8.9L139.881 11.825C139.291 11.395 138.676 11.04 138.036 10.76C137.396 10.47 136.671 10.325 135.861 10.325C135.141 10.325 134.571 10.465 134.151 10.745C133.741 11.025 133.536 11.44 133.536 11.99C133.536 12.61 133.796 13.065 134.316 13.355C134.836 13.645 135.646 13.99 136.746 14.39C137.326 14.6 137.866 14.83 138.366 15.08C138.866 15.33 139.306 15.625 139.686 15.965C140.066 16.305 140.361 16.71 140.571 17.18C140.781 17.65 140.886 18.21 140.886 18.86C140.886 19.7 140.686 20.455 140.286 21.125C139.886 21.795 139.261 22.325 138.411 22.715C137.561 23.105 136.461 23.3 135.111 23.3Z" fill="white"/>
</svg>
